<svg baseProfile="full" height="1.8181818181818181cm" version="1.1" width="9.3cm" xmlns="http://www.w3.org/2000/svg" xmlns:ev="http://www.w3.org/2001/xml-events" xmlns:xlink="http://www.w3.org/1999/xlink"><defs /><polyline fill="none" points="40,30 130,30" stroke="black" stroke-width="2" /><rect fill="royalblue" height="12" rx="0" ry="0" stroke="black" stroke-width="1.5" width="10" x="82.5" y="25" /><text font-size="9" x="83" y="20">S</text><text font-size="7" x="95" y="18">r =0.1</text><text font-size="7" x="95" y="24">θ =0.0</text><polyline fill="none" points="40,60 130,60" stroke="black" stroke-width="2" /><rect fill="royalblue" height="12" rx="0" ry="0" stroke="black" stroke-width="1.5" width="10" x="82.5" y="55" /><text font-size="9" x="83" y="50">S</text><text font-size="7" x="95" y="48">r =0.2</text><text font-size="7" x="95" y="54">θ =0.0</text><polyline fill="none" points="130,30 220,30" stroke="black" stroke-width="2" /><rect fill="green" height="12" rx="0" ry="0" stroke="black" stroke-width="1.5" width="10" x="172.5" y="25" /><text font-size="9" x="173" y="20">D</text><text font-size="7" x="185" y="18">r =0.3</text><text font-size="7" x="185" y="24">θ =0.0</text><polyline fill="none" points="130,60 220,60" stroke="black" stroke-width="2" /><rect fill="green" height="12" rx="0" ry="0" stroke="black" stroke-width="1.5" width="10" x="172.5" y="55" /><text font-size="9" x="173" y="50">D</text><text font-size="7" x="185" y="48">r =0.4</text><text font-size="7" x="185" y="54">θ =0.0</text><polyline fill="none" points="220,30 250,30 280,60 310,60" stroke="black" stroke-width="2" /><polyline fill="none" points="220,60 250,60 280,30 310,30" stroke="black" stroke-width="2" /><text font-size="9" x="260" y="25">BS</text><text font-size="7" x="275" y="44">θ =0.785</text><text font-size="7" x="275" y="50">ϕ =0.785</text><text font-size="12" x="25" y="30">0</text><text font-size="12" x="25" y="60">1</text></svg>