<svg baseProfile="full" height="5.454545454545454cm" version="1.1" width="20.1cm" xmlns="http://www.w3.org/2000/svg" xmlns:ev="http://www.w3.org/2001/xml-events" xmlns:xlink="http://www.w3.org/1999/xlink"><defs /><polyline fill="none" points="40,30 70,30 100,60 130,60" stroke="black" stroke-width="2" /><polyline fill="none" points="40,60 70,60 100,30 130,30" stroke="black" stroke-width="2" /><text font-size="9" x="68" y="25">MZI-PT</text><text font-size="7" x="95" y="44">θ =3.142</text><text font-size="7" x="95" y="50">ϕ =3.142</text><polyline fill="none" points="40,90 70,90 100,120 130,120" stroke="black" stroke-width="2" /><polyline fill="none" points="40,120 70,120 100,90 130,90" stroke="black" stroke-width="2" /><text font-size="9" x="68" y="85">MZI-PT</text><text font-size="7" x="95" y="104">θ =1.571</text><text font-size="7" x="95" y="110">ϕ =3.142</text><polyline fill="none" points="40,150 70,150 100,180 130,180" stroke="black" stroke-width="2" /><polyline fill="none" points="40,180 70,180 100,150 130,150" stroke="black" stroke-width="2" /><text font-size="9" x="68" y="145">MZI-PT</text><text font-size="7" x="95" y="164">θ =2.329</text><text font-size="7" x="95" y="170">ϕ =0.506</text><polyline fill="none" points="130,60 160,60 190,90 220,90" stroke="black" stroke-width="2" /><polyline fill="none" points="130,90 160,90 190,60 220,60" stroke="black" stroke-width="2" /><text font-size="9" x="158" y="55">MZI-PT</text><text font-size="7" x="185" y="74">θ =0.0</text><text font-size="7" x="185" y="80">ϕ =6.079</text><polyline fill="none" points="130,120 160,120 190,150 220,150" stroke="black" stroke-width="2" /><polyline fill="none" points="130,150 160,150 190,120 220,120" stroke="black" stroke-width="2" /><text font-size="9" x="158" y="115">MZI-PT</text><text font-size="7" x="185" y="134">θ =1.152</text><text font-size="7" x="185" y="140">ϕ =4.026</text><polyline fill="none" points="220,30 250,30 280,60 310,60" stroke="black" stroke-width="2" /><polyline fill="none" points="220,60 250,60 280,30 310,30" stroke="black" stroke-width="2" /><text font-size="9" x="248" y="25">MZI-PT</text><text font-size="7" x="275" y="44">θ =1.231</text><text font-size="7" x="275" y="50">ϕ =0.785</text><polyline fill="none" points="220,90 250,90 280,120 310,120" stroke="black" stroke-width="2" /><polyline fill="none" points="220,120 250,120 280,90 310,90" stroke="black" stroke-width="2" /><text font-size="9" x="248" y="85">MZI-PT</text><text font-size="7" x="275" y="104">θ =0.461</text><text font-size="7" x="275" y="110">ϕ =3.515</text><polyline fill="none" points="220,150 250,150 280,180 310,180" stroke="black" stroke-width="2" /><polyline fill="none" points="220,180 250,180 280,150 310,150" stroke="black" stroke-width="2" /><text font-size="9" x="248" y="145">MZI-PT</text><text font-size="7" x="275" y="164">θ =0.461</text><text font-size="7" x="275" y="170">ϕ =4.136</text><polyline fill="none" points="310,60 340,60 370,90 400,90" stroke="black" stroke-width="2" /><polyline fill="none" points="310,90 340,90 370,60 400,60" stroke="black" stroke-width="2" /><text font-size="9" x="338" y="55">MZI-PT</text><text font-size="7" x="365" y="74">θ =1.486</text><text font-size="7" x="365" y="80">ϕ =4.217</text><polyline fill="none" points="310,120 340,120 370,150 400,150" stroke="black" stroke-width="2" /><polyline fill="none" points="310,150 340,150 370,120 400,120" stroke="black" stroke-width="2" /><text font-size="9" x="338" y="115">MZI-PT</text><text font-size="7" x="365" y="134">θ =1.152</text><text font-size="7" x="365" y="140">ϕ =0.995</text><polyline fill="none" points="400,30 430,30 460,60 490,60" stroke="black" stroke-width="2" /><polyline fill="none" points="400,60 430,60 460,30 490,30" stroke="black" stroke-width="2" /><text font-size="9" x="428" y="25">MZI-PT</text><text font-size="7" x="455" y="44">θ =3.142</text><text font-size="7" x="455" y="50">ϕ =6.025</text><polyline fill="none" points="400,90 430,90 460,120 490,120" stroke="black" stroke-width="2" /><polyline fill="none" points="400,120 430,120 460,90 490,90" stroke="black" stroke-width="2" /><text font-size="9" x="428" y="85">MZI-PT</text><text font-size="7" x="455" y="104">θ =0.567</text><text font-size="7" x="455" y="110">ϕ =3.969</text><polyline fill="none" points="400,150 430,150 460,180 490,180" stroke="black" stroke-width="2" /><polyline fill="none" points="400,180 430,180 460,150 490,150" stroke="black" stroke-width="2" /><text font-size="9" x="428" y="145">MZI-PT</text><text font-size="7" x="455" y="164">θ =0.0</text><text font-size="7" x="455" y="170">ϕ =1.5</text><polyline fill="none" points="490,60 520,60 550,90 580,90" stroke="black" stroke-width="2" /><polyline fill="none" points="490,90 520,90 550,60 580,60" stroke="black" stroke-width="2" /><text font-size="9" x="518" y="55">MZI-PT</text><text font-size="7" x="545" y="74">θ =0.591</text><text font-size="7" x="545" y="80">ϕ =2.682</text><polyline fill="none" points="490,120 520,120 550,150 580,150" stroke="black" stroke-width="2" /><polyline fill="none" points="490,150 520,150 550,120 580,120" stroke="black" stroke-width="2" /><text font-size="9" x="518" y="115">MZI-PT</text><text font-size="7" x="545" y="134">θ =3.142</text><text font-size="7" x="545" y="140">ϕ =0.711</text><polyline fill="none" points="490,30 580,30" stroke="black" stroke-width="2" /><rect fill="teal" height="12" rx="0" ry="0" stroke="black" stroke-width="1.5" width="6" x="532.5" y="25" /><text font-size="9" x="530" y="20">PS</text><text font-size="7" x="545" y="20">θ =0.428</text><polyline fill="none" points="580,60 670,60" stroke="black" stroke-width="2" /><rect fill="teal" height="12" rx="0" ry="0" stroke="black" stroke-width="1.5" width="6" x="622.5" y="55" /><text font-size="9" x="620" y="50">PS</text><text font-size="7" x="635" y="50">θ =5.305</text><polyline fill="none" points="580,90 670,90" stroke="black" stroke-width="2" /><rect fill="teal" height="12" rx="0" ry="0" stroke="black" stroke-width="1.5" width="6" x="622.5" y="85" /><text font-size="9" x="620" y="80">PS</text><text font-size="7" x="635" y="80">θ =4.799</text><polyline fill="none" points="580,120 670,120" stroke="black" stroke-width="2" /><rect fill="teal" height="12" rx="0" ry="0" stroke="black" stroke-width="1.5" width="6" x="622.5" y="115" /><text font-size="9" x="620" y="110">PS</text><text font-size="7" x="635" y="110">θ =2.812</text><polyline fill="none" points="580,150 670,150" stroke="black" stroke-width="2" /><rect fill="teal" height="12" rx="0" ry="0" stroke="black" stroke-width="1.5" width="6" x="622.5" y="145" /><text font-size="9" x="620" y="140">PS</text><text font-size="7" x="635" y="140">θ =5.954</text><polyline fill="none" points="490,180 580,180" stroke="black" stroke-width="2" /><rect fill="teal" height="12" rx="0" ry="0" stroke="black" stroke-width="1.5" width="6" x="532.5" y="175" /><text font-size="9" x="530" y="170">PS</text><text font-size="7" x="545" y="170">θ =5.954</text><polyline fill="none" points="130,30 220,30" stroke="black" stroke-width="2" /><polyline fill="none" points="130,180 220,180" stroke="black" stroke-width="2" /><polyline fill="none" points="310,30 400,30" stroke="black" stroke-width="2" /><polyline fill="none" points="310,180 400,180" stroke="black" stroke-width="2" /><polyline fill="none" points="580,30 670,30" stroke="black" stroke-width="2" /><polyline fill="none" points="580,180 670,180" stroke="black" stroke-width="2" /><text font-size="12" x="25" y="30">0</text><text font-size="12" x="25" y="60">1</text><text font-size="12" x="25" y="90">2</text><text font-size="12" x="25" y="120">3</text><text font-size="12" x="25" y="150">4</text><text font-size="12" x="25" y="180">5</text></svg>