<?xml version="1.0" encoding="utf-8" ?>
<svg baseProfile="full" height="7.636363636363637cm" version="1.1" width="49.8cm" xmlns="http://www.w3.org/2000/svg" xmlns:ev="http://www.w3.org/2001/xml-events" xmlns:xlink="http://www.w3.org/1999/xlink"><defs /><polyline fill="none" points="40,30 130,30" stroke="black" stroke-width="2" /><polyline fill="none" points="40,60 130,60" stroke="black" stroke-width="2" /><rect fill="royalblue" height="39" rx="0" ry="0" stroke="black" stroke-width="1.5" width="10" x="82.5" y="25" /><text font-size="9" x="80" y="20">S2</text><text font-size="7" x="95" y="18">r =0.1</text><text font-size="7" x="95" y="24">θ =0.0</text><polyline fill="none" points="40,90 130,90" stroke="black" stroke-width="2" /><rect fill="royalblue" height="12" rx="0" ry="0" stroke="black" stroke-width="1.5" width="10" x="82.5" y="85" /><text font-size="9" x="83" y="80">S</text><text font-size="7" x="95" y="78">r =0.1</text><text font-size="7" x="95" y="84">θ =0.0</text><polyline fill="none" points="130,60 160,60 190,90 220,90" stroke="black" stroke-width="2" /><polyline fill="none" points="130,90 160,90 190,60 220,60" stroke="black" stroke-width="2" /><text font-size="9" x="161" y="55">BS-RY</text><text font-size="7" x="185" y="74">θ =-0.314</text><polyline fill="none" points="220,60 310,60" stroke="black" stroke-width="2" /><rect fill="teal" height="12" rx="0" ry="0" stroke="black" stroke-width="1.5" width="6" x="262.5" y="55" /><text font-size="9" x="260" y="50">PS</text><text font-size="7" x="275" y="50">θ =0.0</text><polyline fill="none" points="220,90 250,90 280,120 310,120" stroke="black" stroke-width="2" /><polyline fill="none" points="220,120 250,120 280,90 310,90" stroke="black" stroke-width="2" /><text font-size="9" x="251" y="85">BS-RY</text><text font-size="7" x="275" y="104">θ =-0.314</text><polyline fill="none" points="310,90 400,90" stroke="black" stroke-width="2" /><rect fill="teal" height="12" rx="0" ry="0" stroke="black" stroke-width="1.5" width="6" x="352.5" y="85" /><text font-size="9" x="350" y="80">PS</text><text font-size="7" x="365" y="80">θ =0.0</text><polyline fill="none" points="310,120 340,120 370,150 400,150" stroke="black" stroke-width="2" /><polyline fill="none" points="310,150 340,150 370,120 400,120" stroke="black" stroke-width="2" /><text font-size="9" x="341" y="115">BS-RY</text><text font-size="7" x="365" y="134">θ =-0.314</text><polyline fill="none" points="400,120 490,120" stroke="black" stroke-width="2" /><rect fill="teal" height="12" rx="0" ry="0" stroke="black" stroke-width="1.5" width="6" x="442.5" y="115" /><text font-size="9" x="440" y="110">PS</text><text font-size="7" x="455" y="110">θ =0.0</text><polyline fill="none" points="400,150 430,150 460,180 490,180" stroke="black" stroke-width="2" /><polyline fill="none" points="400,180 430,180 460,150 490,150" stroke="black" stroke-width="2" /><text font-size="9" x="431" y="145">BS-RY</text><text font-size="7" x="455" y="164">θ =-0.314</text><polyline fill="none" points="490,150 580,150" stroke="black" stroke-width="2" /><rect fill="teal" height="12" rx="0" ry="0" stroke="black" stroke-width="1.5" width="6" x="532.5" y="145" /><text font-size="9" x="530" y="140">PS</text><text font-size="7" x="545" y="140">θ =0.0</text><polyline fill="none" points="490,180 520,180 550,210 580,210" stroke="black" stroke-width="2" /><polyline fill="none" points="490,210 520,210 550,180 580,180" stroke="black" stroke-width="2" /><text font-size="9" x="521" y="175">BS-RY</text><text font-size="7" x="545" y="194">θ =-0.314</text><polyline fill="none" points="580,180 670,180" stroke="black" stroke-width="2" /><rect fill="teal" height="12" rx="0" ry="0" stroke="black" stroke-width="1.5" width="6" x="622.5" y="175" /><text font-size="9" x="620" y="170">PS</text><text font-size="7" x="635" y="170">θ =0.0</text><polyline fill="none" points="580,210 610,210 640,240 670,240" stroke="black" stroke-width="2" /><polyline fill="none" points="580,240 610,240 640,210 670,210" stroke="black" stroke-width="2" /><text font-size="9" x="611" y="205">BS-RY</text><text font-size="7" x="635" y="224">θ =-0.314</text><polyline fill="none" points="670,210 760,210" stroke="black" stroke-width="2" /><rect fill="teal" height="12" rx="0" ry="0" stroke="black" stroke-width="1.5" width="6" x="712.5" y="205" /><text font-size="9" x="710" y="200">PS</text><text font-size="7" x="725" y="200">θ =0.0</text><polyline fill="none" points="400,60 430,60 460,90 490,90" stroke="black" stroke-width="2" /><polyline fill="none" points="400,90 430,90 460,60 490,60" stroke="black" stroke-width="2" /><text font-size="9" x="431" y="55">BS-RY</text><text font-size="7" x="455" y="74">θ =-0.314</text><polyline fill="none" points="490,60 580,60" stroke="black" stroke-width="2" /><rect fill="teal" height="12" rx="0" ry="0" stroke="black" stroke-width="1.5" width="6" x="532.5" y="55" /><text font-size="9" x="530" y="50">PS</text><text font-size="7" x="545" y="50">θ =0.0</text><polyline fill="none" points="490,90 520,90 550,120 580,120" stroke="black" stroke-width="2" /><polyline fill="none" points="490,120 520,120 550,90 580,90" stroke="black" stroke-width="2" /><text font-size="9" x="521" y="85">BS-RY</text><text font-size="7" x="545" y="104">θ =-0.314</text><polyline fill="none" points="580,90 670,90" stroke="black" stroke-width="2" /><rect fill="teal" height="12" rx="0" ry="0" stroke="black" stroke-width="1.5" width="6" x="622.5" y="85" /><text font-size="9" x="620" y="80">PS</text><text font-size="7" x="635" y="80">θ =0.0</text><polyline fill="none" points="580,120 610,120 640,150 670,150" stroke="black" stroke-width="2" /><polyline fill="none" points="580,150 610,150 640,120 670,120" stroke="black" stroke-width="2" /><text font-size="9" x="611" y="115">BS-RY</text><text font-size="7" x="635" y="134">θ =-0.314</text><polyline fill="none" points="670,120 760,120" stroke="black" stroke-width="2" /><rect fill="teal" height="12" rx="0" ry="0" stroke="black" stroke-width="1.5" width="6" x="712.5" y="115" /><text font-size="9" x="710" y="110">PS</text><text font-size="7" x="725" y="110">θ =0.0</text><polyline fill="none" points="670,150 700,150 730,180 760,180" stroke="black" stroke-width="2" /><polyline fill="none" points="670,180 700,180 730,150 760,150" stroke="black" stroke-width="2" /><text font-size="9" x="701" y="145">BS-RY</text><text font-size="7" x="725" y="164">θ =-0.314</text><polyline fill="none" points="760,150 850,150" stroke="black" stroke-width="2" /><rect fill="teal" height="12" rx="0" ry="0" stroke="black" stroke-width="1.5" width="6" x="802.5" y="145" /><text font-size="9" x="800" y="140">PS</text><text font-size="7" x="815" y="140">θ =0.0</text><polyline fill="none" points="760,180 790,180 820,210 850,210" stroke="black" stroke-width="2" /><polyline fill="none" points="760,210 790,210 820,180 850,180" stroke="black" stroke-width="2" /><text font-size="9" x="791" y="175">BS-RY</text><text font-size="7" x="815" y="194">θ =-0.314</text><polyline fill="none" points="850,180 940,180" stroke="black" stroke-width="2" /><rect fill="teal" height="12" rx="0" ry="0" stroke="black" stroke-width="1.5" width="6" x="892.5" y="175" /><text font-size="9" x="890" y="170">PS</text><text font-size="7" x="905" y="170">θ =0.0</text><polyline fill="none" points="670,60 700,60 730,90 760,90" stroke="black" stroke-width="2" /><polyline fill="none" points="670,90 700,90 730,60 760,60" stroke="black" stroke-width="2" /><text font-size="9" x="701" y="55">BS-RY</text><text font-size="7" x="725" y="74">θ =-0.314</text><polyline fill="none" points="760,60 850,60" stroke="black" stroke-width="2" /><rect fill="teal" height="12" rx="0" ry="0" stroke="black" stroke-width="1.5" width="6" x="802.5" y="55" /><text font-size="9" x="800" y="50">PS</text><text font-size="7" x="815" y="50">θ =0.0</text><polyline fill="none" points="760,90 790,90 820,120 850,120" stroke="black" stroke-width="2" /><polyline fill="none" points="760,120 790,120 820,90 850,90" stroke="black" stroke-width="2" /><text font-size="9" x="791" y="85">BS-RY</text><text font-size="7" x="815" y="104">θ =-0.314</text><polyline fill="none" points="850,90 940,90" stroke="black" stroke-width="2" /><rect fill="teal" height="12" rx="0" ry="0" stroke="black" stroke-width="1.5" width="6" x="892.5" y="85" /><text font-size="9" x="890" y="80">PS</text><text font-size="7" x="905" y="80">θ =0.0</text><polyline fill="none" points="850,120 880,120 910,150 940,150" stroke="black" stroke-width="2" /><polyline fill="none" points="850,150 880,150 910,120 940,120" stroke="black" stroke-width="2" /><text font-size="9" x="881" y="115">BS-RY</text><text font-size="7" x="905" y="134">θ =-0.314</text><polyline fill="none" points="940,120 1030,120" stroke="black" stroke-width="2" /><rect fill="teal" height="12" rx="0" ry="0" stroke="black" stroke-width="1.5" width="6" x="982.5" y="115" /><text font-size="9" x="980" y="110">PS</text><text font-size="7" x="995" y="110">θ =0.0</text><polyline fill="none" points="940,150 970,150 1000,180 1030,180" stroke="black" stroke-width="2" /><polyline fill="none" points="940,180 970,180 1000,150 1030,150" stroke="black" stroke-width="2" /><text font-size="9" x="971" y="145">BS-RY</text><text font-size="7" x="995" y="164">θ =-0.314</text><polyline fill="none" points="1030,150 1120,150" stroke="black" stroke-width="2" /><rect fill="teal" height="12" rx="0" ry="0" stroke="black" stroke-width="1.5" width="6" x="1072.5" y="145" /><text font-size="9" x="1070" y="140">PS</text><text font-size="7" x="1085" y="140">θ =0.0</text><polyline fill="none" points="940,60 970,60 1000,90 1030,90" stroke="black" stroke-width="2" /><polyline fill="none" points="940,90 970,90 1000,60 1030,60" stroke="black" stroke-width="2" /><text font-size="9" x="971" y="55">BS-RY</text><text font-size="7" x="995" y="74">θ =-0.314</text><polyline fill="none" points="1030,60 1120,60" stroke="black" stroke-width="2" /><rect fill="teal" height="12" rx="0" ry="0" stroke="black" stroke-width="1.5" width="6" x="1072.5" y="55" /><text font-size="9" x="1070" y="50">PS</text><text font-size="7" x="1085" y="50">θ =0.0</text><polyline fill="none" points="1030,90 1060,90 1090,120 1120,120" stroke="black" stroke-width="2" /><polyline fill="none" points="1030,120 1060,120 1090,90 1120,90" stroke="black" stroke-width="2" /><text font-size="9" x="1061" y="85">BS-RY</text><text font-size="7" x="1085" y="104">θ =-0.314</text><polyline fill="none" points="1120,90 1210,90" stroke="black" stroke-width="2" /><rect fill="teal" height="12" rx="0" ry="0" stroke="black" stroke-width="1.5" width="6" x="1162.5" y="85" /><text font-size="9" x="1160" y="80">PS</text><text font-size="7" x="1175" y="80">θ =0.0</text><polyline fill="none" points="1120,120 1150,120 1180,150 1210,150" stroke="black" stroke-width="2" /><polyline fill="none" points="1120,150 1150,150 1180,120 1210,120" stroke="black" stroke-width="2" /><text font-size="9" x="1151" y="115">BS-RY</text><text font-size="7" x="1175" y="134">θ =-0.314</text><polyline fill="none" points="1210,120 1300,120" stroke="black" stroke-width="2" /><rect fill="teal" height="12" rx="0" ry="0" stroke="black" stroke-width="1.5" width="6" x="1252.5" y="115" /><text font-size="9" x="1250" y="110">PS</text><text font-size="7" x="1265" y="110">θ =0.0</text><polyline fill="none" points="1210,60 1240,60 1270,90 1300,90" stroke="black" stroke-width="2" /><polyline fill="none" points="1210,90 1240,90 1270,60 1300,60" stroke="black" stroke-width="2" /><text font-size="9" x="1241" y="55">BS-RY</text><text font-size="7" x="1265" y="74">θ =-0.314</text><polyline fill="none" points="1300,60 1390,60" stroke="black" stroke-width="2" /><rect fill="teal" height="12" rx="0" ry="0" stroke="black" stroke-width="1.5" width="6" x="1342.5" y="55" /><text font-size="9" x="1340" y="50">PS</text><text font-size="7" x="1355" y="50">θ =0.0</text><polyline fill="none" points="1300,90 1330,90 1360,120 1390,120" stroke="black" stroke-width="2" /><polyline fill="none" points="1300,120 1330,120 1360,90 1390,90" stroke="black" stroke-width="2" /><text font-size="9" x="1331" y="85">BS-RY</text><text font-size="7" x="1355" y="104">θ =-0.314</text><polyline fill="none" points="1390,90 1480,90" stroke="black" stroke-width="2" /><rect fill="teal" height="12" rx="0" ry="0" stroke="black" stroke-width="1.5" width="6" x="1432.5" y="85" /><text font-size="9" x="1430" y="80">PS</text><text font-size="7" x="1445" y="80">θ =0.0</text><polyline fill="none" points="1480,60 1510,60 1540,90 1570,90" stroke="black" stroke-width="2" /><polyline fill="none" points="1480,90 1510,90 1540,60 1570,60" stroke="black" stroke-width="2" /><text font-size="9" x="1511" y="55">BS-RY</text><text font-size="7" x="1535" y="74">θ =-0.314</text><polyline fill="none" points="1570,60 1660,60" stroke="black" stroke-width="2" /><rect fill="teal" height="12" rx="0" ry="0" stroke="black" stroke-width="1.5" width="6" x="1612.5" y="55" /><text font-size="9" x="1610" y="50">PS</text><text font-size="7" x="1625" y="50">θ =0.0</text><polyline fill="none" points="40,120 130,120" stroke="black" stroke-width="2" /><polyline fill="none" points="40,150 130,150" stroke="black" stroke-width="2" /><polyline fill="none" points="40,180 130,180" stroke="black" stroke-width="2" /><polyline fill="none" points="40,210 130,210" stroke="black" stroke-width="2" /><polyline fill="none" points="40,240 130,240" stroke="black" stroke-width="2" /><polyline fill="none" points="130,30 220,30" stroke="black" stroke-width="2" /><polyline fill="none" points="130,120 220,120" stroke="black" stroke-width="2" /><polyline fill="none" points="130,150 220,150" stroke="black" stroke-width="2" /><polyline fill="none" points="130,180 220,180" stroke="black" stroke-width="2" /><polyline fill="none" points="130,210 220,210" stroke="black" stroke-width="2" /><polyline fill="none" points="130,240 220,240" stroke="black" stroke-width="2" /><polyline fill="none" points="220,30 310,30" stroke="black" stroke-width="2" /><polyline fill="none" points="220,150 310,150" stroke="black" stroke-width="2" /><polyline fill="none" points="220,180 310,180" stroke="black" stroke-width="2" /><polyline fill="none" points="220,210 310,210" stroke="black" stroke-width="2" /><polyline fill="none" points="220,240 310,240" stroke="black" stroke-width="2" /><polyline fill="none" points="310,30 400,30" stroke="black" stroke-width="2" /><polyline fill="none" points="310,60 400,60" stroke="black" stroke-width="2" /><polyline fill="none" points="310,180 400,180" stroke="black" stroke-width="2" /><polyline fill="none" points="310,210 400,210" stroke="black" stroke-width="2" /><polyline fill="none" points="310,240 400,240" stroke="black" stroke-width="2" /><polyline fill="none" points="400,30 490,30" stroke="black" stroke-width="2" /><polyline fill="none" points="400,210 490,210" stroke="black" stroke-width="2" /><polyline fill="none" points="400,240 490,240" stroke="black" stroke-width="2" /><polyline fill="none" points="490,30 580,30" stroke="black" stroke-width="2" /><polyline fill="none" points="490,240 580,240" stroke="black" stroke-width="2" /><polyline fill="none" points="580,30 670,30" stroke="black" stroke-width="2" /><polyline fill="none" points="580,60 670,60" stroke="black" stroke-width="2" /><polyline fill="none" points="670,30 760,30" stroke="black" stroke-width="2" /><polyline fill="none" points="670,240 760,240" stroke="black" stroke-width="2" /><polyline fill="none" points="760,30 850,30" stroke="black" stroke-width="2" /><polyline fill="none" points="760,240 850,240" stroke="black" stroke-width="2" /><polyline fill="none" points="850,30 940,30" stroke="black" stroke-width="2" /><polyline fill="none" points="850,60 940,60" stroke="black" stroke-width="2" /><polyline fill="none" points="850,210 940,210" stroke="black" stroke-width="2" /><polyline fill="none" points="850,240 940,240" stroke="black" stroke-width="2" /><polyline fill="none" points="940,30 1030,30" stroke="black" stroke-width="2" /><polyline fill="none" points="940,210 1030,210" stroke="black" stroke-width="2" /><polyline fill="none" points="940,240 1030,240" stroke="black" stroke-width="2" /><polyline fill="none" points="1030,30 1120,30" stroke="black" stroke-width="2" /><polyline fill="none" points="1030,180 1120,180" stroke="black" stroke-width="2" /><polyline fill="none" points="1030,210 1120,210" stroke="black" stroke-width="2" /><polyline fill="none" points="1030,240 1120,240" stroke="black" stroke-width="2" /><polyline fill="none" points="1120,30 1210,30" stroke="black" stroke-width="2" /><polyline fill="none" points="1120,60 1210,60" stroke="black" stroke-width="2" /><polyline fill="none" points="1120,180 1210,180" stroke="black" stroke-width="2" /><polyline fill="none" points="1120,210 1210,210" stroke="black" stroke-width="2" /><polyline fill="none" points="1120,240 1210,240" stroke="black" stroke-width="2" /><polyline fill="none" points="1210,30 1300,30" stroke="black" stroke-width="2" /><polyline fill="none" points="1210,150 1300,150" stroke="black" stroke-width="2" /><polyline fill="none" points="1210,180 1300,180" stroke="black" stroke-width="2" /><polyline fill="none" points="1210,210 1300,210" stroke="black" stroke-width="2" /><polyline fill="none" points="1210,240 1300,240" stroke="black" stroke-width="2" /><polyline fill="none" points="1300,30 1390,30" stroke="black" stroke-width="2" /><polyline fill="none" points="1300,150 1390,150" stroke="black" stroke-width="2" /><polyline fill="none" points="1300,180 1390,180" stroke="black" stroke-width="2" /><polyline fill="none" points="1300,210 1390,210" stroke="black" stroke-width="2" /><polyline fill="none" points="1300,240 1390,240" stroke="black" stroke-width="2" /><polyline fill="none" points="1390,30 1480,30" stroke="black" stroke-width="2" /><polyline fill="none" points="1390,60 1480,60" stroke="black" stroke-width="2" /><polyline fill="none" points="1390,120 1480,120" stroke="black" stroke-width="2" /><polyline fill="none" points="1390,150 1480,150" stroke="black" stroke-width="2" /><polyline fill="none" points="1390,180 1480,180" stroke="black" stroke-width="2" /><polyline fill="none" points="1390,210 1480,210" stroke="black" stroke-width="2" /><polyline fill="none" points="1390,240 1480,240" stroke="black" stroke-width="2" /><polyline fill="none" points="1480,30 1570,30" stroke="black" stroke-width="2" /><polyline fill="none" points="1480,120 1570,120" stroke="black" stroke-width="2" /><polyline fill="none" points="1480,150 1570,150" stroke="black" stroke-width="2" /><polyline fill="none" points="1480,180 1570,180" stroke="black" stroke-width="2" /><polyline fill="none" points="1480,210 1570,210" stroke="black" stroke-width="2" /><polyline fill="none" points="1480,240 1570,240" stroke="black" stroke-width="2" /><polyline fill="none" points="1570,30 1660,30" stroke="black" stroke-width="2" /><polyline fill="none" points="1570,90 1660,90" stroke="black" stroke-width="2" /><polyline fill="none" points="1570,120 1660,120" stroke="black" stroke-width="2" /><polyline fill="none" points="1570,150 1660,150" stroke="black" stroke-width="2" /><polyline fill="none" points="1570,180 1660,180" stroke="black" stroke-width="2" /><polyline fill="none" points="1570,210 1660,210" stroke="black" stroke-width="2" /><polyline fill="none" points="1570,240 1660,240" stroke="black" stroke-width="2" /><text font-size="12" x="25" y="30">0</text><text font-size="12" x="25" y="60">1</text><text font-size="12" x="25" y="90">2</text><text font-size="12" x="25" y="120">3</text><text font-size="12" x="25" y="150">4</text><text font-size="12" x="25" y="180">5</text><text font-size="12" x="25" y="210">6</text><text font-size="12" x="25" y="240">7</text></svg>