<?xml version="1.0" encoding="utf-8" ?>
<svg baseProfile="full" height="2.727272727272727cm" version="1.1" width="9.3cm" xmlns="http://www.w3.org/2000/svg" xmlns:ev="http://www.w3.org/2001/xml-events" xmlns:xlink="http://www.w3.org/1999/xlink"><defs /><polyline fill="none" points="40,30 130,30" stroke="black" stroke-width="2" /><rect fill="royalblue" height="12" rx="0" ry="0" stroke="black" stroke-width="1.5" width="10" x="82.5" y="25" /><text font-size="9" x="83" y="20">S</text><text font-size="7" x="95" y="18">r =0.1</text><text font-size="7" x="95" y="24">θ =0.0</text><polyline fill="none" points="40,60 130,60" stroke="black" stroke-width="2" /><rect fill="royalblue" height="12" rx="0" ry="0" stroke="black" stroke-width="1.5" width="10" x="82.5" y="55" /><text font-size="9" x="83" y="50">S</text><text font-size="7" x="95" y="48">r =0.1</text><text font-size="7" x="95" y="54">θ =0.0</text><polyline fill="none" points="40,90 130,90" stroke="black" stroke-width="2" /><rect fill="royalblue" height="12" rx="0" ry="0" stroke="black" stroke-width="1.5" width="10" x="82.5" y="85" /><text font-size="9" x="83" y="80">S</text><text font-size="7" x="95" y="78">r =0.0</text><text font-size="7" x="95" y="84">θ =0.0</text><polyline fill="none" points="130,60 160,60 190,90 220,90" stroke="black" stroke-width="2" /><polyline fill="none" points="130,90 160,90 190,60 220,60" stroke="black" stroke-width="2" /><text font-size="9" x="170" y="55">BS</text><text font-size="7" x="185" y="74">θ =1.414</text><text font-size="7" x="185" y="80">ϕ =nan</text><polyline fill="none" points="220,60 310,60" stroke="black" stroke-width="2" /><rect fill="teal" height="12" rx="0" ry="0" stroke="black" stroke-width="1.5" width="6" x="262.5" y="55" /><text font-size="9" x="260" y="50">PS</text><text font-size="7" x="275" y="50">θ =0.0</text><polyline fill="none" points="130,30 220,30" stroke="black" stroke-width="2" /><polyline fill="none" points="220,30 310,30" stroke="black" stroke-width="2" /><polyline fill="none" points="220,90 310,90" stroke="black" stroke-width="2" /><text font-size="12" x="25" y="30">0</text><text font-size="12" x="25" y="60">1</text><text font-size="12" x="25" y="90">2</text></svg>